<svg width="123" height="73" viewBox="0 0 123 73" fill="none" xmlns="http://www.w3.org/2000/svg">
<g clip-path="url(#clip0_78_950)">
<path d="M25.8798 5.51L25.6098 5.65C23.5798 3.34 20.7398 0.36 15.7198 0.36H14.7298V28.63C14.7298 30.21 15.0898 30.89 15.7698 31.3V31.62H10.1698V31.3C10.8498 30.89 11.2098 30.22 11.2098 28.63V0.36H10.2198C5.1998 0.36 2.3498 3.34 0.319805 5.65L0.0498047 5.51L1.4898 0H24.4298L25.8798 5.51Z" fill="#66282C"/>
<path d="M51.2196 31.62H44.2596V31.3C45.4296 30.13 45.0696 28.55 43.8096 25.25L41.5996 19.51H30.3996L29.1796 22.94C27.7296 27.05 27.5096 29.26 29.4096 31.3V31.62H24.0796V31.3C26.0196 29.27 27.3296 27.19 28.8196 22.94L35.5896 3.88L34.0996 0H37.6696L46.4796 22.94C48.3296 27.46 49.5096 29.26 51.2196 31.3V31.62ZM41.4696 19.15L35.7796 4.38L30.5396 19.15H41.4696Z" fill="#66282C"/>
<path d="M77.5997 31.3V31.62H70.6397V31.3C71.8097 30.13 70.8697 28.5 69.0997 25.38L64.2697 16.93C63.5897 16.98 62.9097 17.02 62.2397 17.02H58.0397V28.63C58.0397 30.21 58.3597 30.89 59.0297 31.3V31.62H53.4697V31.3C54.1497 30.89 54.4597 30.22 54.4597 28.63V3.03001C54.4597 1.40001 54.1397 0.77001 53.4697 0.37001V0.0100098H62.2297C69.2297 0.0100098 75.5497 2.63001 75.5497 8.55001C75.5497 12.8 72.1597 15.37 67.6497 16.41L71.7197 23.55C74.3897 28.2 75.8297 29.74 77.5897 31.32L77.5997 31.3ZM71.9997 8.54001C71.9997 5.02001 70.8297 0.37001 62.2397 0.37001H58.0397V16.67H62.2397C70.7797 16.67 71.9997 12.02 71.9997 8.54001Z" fill="#66282C"/>
<path d="M84.4199 3.03001V28.64C84.4199 30.22 84.7399 30.9 85.4599 31.31V31.63H79.8599V31.31C80.5399 30.9 80.8499 30.23 80.8499 28.64V3.03001C80.8499 1.45001 80.5299 0.77001 79.8599 0.37001V0.0100098H85.4599V0.37001C84.7399 0.78001 84.4199 1.45001 84.4199 3.03001Z" fill="#66282C"/>
<path d="M121.59 3.03V28.64C121.59 30.22 121.91 30.9 122.63 31.31V31.63H117.03V31.31C117.71 30.9 118.07 30.23 118.07 28.64V1.35L105.61 22.94H105.2L92.2796 3.25V26.19C92.2796 28.13 93.6296 30.53 95.1296 31.29V31.61H89.0796V31.29C90.5696 30.52 91.9296 28.13 91.9296 26.19V2.8L89.8996 0H93.9696L106.93 20.01L118.43 0H122.63V0.36C121.91 0.77 121.59 1.4 121.59 3.02V3.03Z" fill="#66282C"/>
<path d="M0 39.78H1.51V44.26C1.51 45.23 2.19 45.8 3.16 45.8C4.13 45.8 4.81 45.23 4.81 44.26V39.78H6.33V44.4C6.33 46.16 5 47.18 3.16 47.18C1.32 47.18 0 46.16 0 44.4V39.78Z" fill="#66282C"/>
<path d="M11.5002 44.3V47.07H10.0002V44.3L7.24023 39.78H8.96023L10.7502 42.83L12.5402 39.78H14.2502L11.5002 44.3Z" fill="#66282C"/>
<path d="M18.4301 43.15H22.3001V47.08H21.1901L21.0901 46.13C20.5101 46.75 19.6901 47.19 18.6001 47.19C16.4001 47.19 14.8101 45.61 14.8101 43.42C14.8101 41.23 16.4301 39.68 18.5901 39.68C20.4301 39.68 21.9501 40.67 22.2601 42.34H20.6401C20.3601 41.56 19.5601 41.11 18.6701 41.11C17.3901 41.11 16.3901 42.02 16.3901 43.43C16.3901 44.84 17.2901 45.77 18.6901 45.77C19.6101 45.77 20.5601 45.29 20.8101 44.32H18.4101V43.15H18.4301Z" fill="#66282C"/>
<path d="M30.5502 47.07H29.0102V44H25.5302V47.07H23.9902V39.78H25.5302V42.71H29.0102V39.78H30.5502V47.07Z" fill="#66282C"/>
<path d="M32.3198 39.78H33.8298V44.26C33.8298 45.23 34.5098 45.8 35.4798 45.8C36.4498 45.8 37.1298 45.23 37.1298 44.26V39.78H38.6498V44.4C38.6498 46.16 37.3198 47.18 35.4798 47.18C33.6398 47.18 32.3198 46.16 32.3198 44.4V39.78Z" fill="#66282C"/>
<path d="M40.4001 47.07V39.78H43.8801C45.3401 39.78 46.4401 40.8 46.4401 42.21C46.4401 43.25 45.8301 44.08 44.9301 44.44L46.4801 47.07H44.7301L43.3201 44.64H41.9301V47.07H40.3901H40.4001ZM41.9401 43.34H43.6701C44.3701 43.34 44.8701 42.86 44.8701 42.21C44.8701 41.53 44.3201 41.1 43.6701 41.1H41.9401V43.34Z" fill="#66282C"/>
<path d="M50.3801 47.07V39.78H53.8601C55.3201 39.78 56.4201 40.8 56.4201 42.21C56.4201 43.25 55.8101 44.08 54.9101 44.44L56.4601 47.07H54.7101L53.3001 44.64H51.9101V47.07H50.3701H50.3801ZM51.9201 43.34H53.6501C54.3501 43.34 54.8501 42.86 54.8501 42.21C54.8501 41.53 54.3001 41.1 53.6501 41.1H51.9201V43.34Z" fill="#66282C"/>
<path d="M59.3899 43.98V45.75H63.0099V47.07H57.8599V39.78H62.9199V41.1H59.3899V42.71H62.5499V43.99H59.3899V43.98Z" fill="#66282C"/>
<path d="M65.5602 44.81C65.6202 45.49 66.1902 45.87 66.8902 45.87C67.5402 45.87 68.1202 45.56 68.1202 44.97C68.1202 44.27 67.2002 44.1 66.5502 43.95C65.4102 43.68 64.0502 43.35 64.0502 41.81C64.0502 40.48 65.0902 39.69 66.7902 39.69C68.4902 39.69 69.4302 40.56 69.4902 41.9H67.8802C67.8502 41.32 67.3402 40.99 66.7402 40.99C66.1402 40.99 65.6202 41.24 65.6202 41.78C65.6202 42.43 66.5402 42.58 67.1602 42.74C68.3302 43.01 69.7102 43.38 69.7102 44.94C69.7102 46.39 68.5202 47.21 66.8502 47.21C65.1802 47.21 64.0002 46.26 63.9502 44.83H65.5702L65.5602 44.81Z" fill="#66282C"/>
<path d="M70.3298 41.12V39.78H76.4198V41.12H74.1198V47.07H72.5898V41.12H70.3198H70.3298Z" fill="#66282C"/>
<path d="M78.9102 45.63L78.3602 47.07H76.7202L79.6702 39.78H81.4302L84.3802 47.07H82.7402L82.1802 45.63H78.9102ZM81.7202 44.41L80.5502 41.36L79.3802 44.41H81.7102H81.7202Z" fill="#66282C"/>
<path d="M85.29 39.78H86.8V44.26C86.8 45.23 87.48 45.8 88.45 45.8C89.42 45.8 90.1 45.23 90.1 44.26V39.78H91.62V44.4C91.62 46.16 90.29 47.18 88.45 47.18C86.61 47.18 85.29 46.16 85.29 44.4V39.78Z" fill="#66282C"/>
<path d="M93.3699 47.07V39.78H96.8499C98.3099 39.78 99.4099 40.8 99.4099 42.21C99.4099 43.25 98.7999 44.08 97.8999 44.44L99.4499 47.07H97.6999L96.2899 44.64H94.8999V47.07H93.3599H93.3699ZM94.9099 43.34H96.6399C97.3399 43.34 97.8399 42.86 97.8399 42.21C97.8399 41.53 97.2899 41.1 96.6399 41.1H94.9099V43.34Z" fill="#66282C"/>
<path d="M102.19 45.63L101.64 47.07H100L102.95 39.78H104.71L107.66 47.07H106.02L105.46 45.63H102.19ZM105 44.41L103.83 41.36L102.66 44.41H104.99H105Z" fill="#66282C"/>
<path d="M108.65 47.07V39.78H110.03L113.95 44.68V39.78H115.46V47.07H114.12L110.17 42.22V47.07H108.66H108.65Z" fill="#66282C"/>
<path d="M116.59 41.12V39.78H122.68V41.12H120.38V47.07H118.85V41.12H116.58H116.59Z" fill="#66282C"/>
<path d="M57.1199 68.86C57.5299 68.03 58.5499 67.31 59.3999 67.58C60.1099 67.81 60.2999 68.66 59.8299 68.92C59.5399 69.09 59.5399 68.84 59.4899 68.63C59.3299 68.47 59.2199 68.25 58.8199 68.33C57.6599 68.59 57.3599 70.22 58.2899 70.79C59.9699 71.89 62.2299 70.77 63.2599 69.48C63.9299 68.64 64.0499 67.85 64.2099 67.21C62.3299 66.67 60.5699 65.87 58.8499 64.96C56.6999 66.1 52.8099 68.04 50.4899 67.17C48.2699 66.33 47.0899 63.45 49.8799 60.36C44.4199 58.54 41.0599 61.43 41.1699 63.93C41.1999 65.72 43.2399 67.39 44.9199 66.46C46.4599 65.58 46.3399 63.67 45.6699 63.43C45.3399 63.31 45.0099 63.64 44.6699 63.51C44.3399 63.34 44.1299 62.85 44.4199 62.55C44.7799 62.15 45.3599 62.12 45.8199 62.39C46.6299 62.93 46.6399 64.31 46.2899 65.25C45.1499 67.89 41.5999 67.52 40.9099 64.82C40.2799 62.08 43.2199 59.08 47.1999 59.18C48.5499 59.21 49.7099 59.54 50.5399 59.74C53.2299 57.67 56.4499 57.11 60.0499 58.74C60.6499 59.01 63.7399 52.99 69.3199 53.11C71.8099 53.16 72.4599 54.8 72.6099 54.78C79.5199 53.87 82.2399 57.35 81.7799 59.97C81.4999 61.55 80.1999 62.15 79.8599 61.79C79.8999 61.41 79.9799 61.06 80.1199 60.71C81.0299 58.53 78.8499 55.73 73.0899 55.99C72.9899 55.99 73.0699 55.99 73.0699 56.49C73.0799 58 71.4999 58.64 70.7799 58.42C70.3299 58.28 71.3999 58.41 71.8299 57.24C71.9599 56.87 71.9599 56.5 71.8699 56.12C68.4799 56.12 62.7999 59.95 62.5299 60.34C64.0299 61.63 63.4899 61.77 63.9399 61.52C74.5199 55.69 80.5599 61.6 76.4199 65.4C73.6099 68 69.1599 68.26 65.3499 67.52C65.0899 68.72 64.8099 69.72 63.7999 70.69C60.5899 73.79 55.5399 72 57.0899 68.87L57.1199 68.86ZM65.4199 65.8C66.4499 66.09 68.3799 66.1 69.5899 66.02C74.0299 65.84 77.4099 63.3 75.3599 61.34C72.8799 58.97 66.8399 60.32 64.0799 62.08C64.8299 63.25 65.2799 64.4 65.4199 65.8ZM50.2099 60.47C46.9799 63.61 48.8499 67.42 52.3399 66.99C54.3099 66.75 56.6199 65.68 58.3399 64.74C58.3999 64.71 58.5099 64.79 56.9499 63.9C53.9199 65.23 53.8799 65.28 51.6999 65.26C51.6799 65.26 51.6599 65.25 51.6399 65.24C51.6399 64.99 52.6399 65.26 53.9199 64.81C54.8399 64.49 56.3999 63.72 56.4899 63.63C56.2599 63.49 56.0299 63.36 55.8099 63.23C54.1699 64.18 52.9099 64.12 53.0099 63.9C53.8299 63.8 54.1699 63.79 55.4499 63.05C55.6099 62.96 51.3899 60.75 50.2099 60.47ZM71.3299 55.01C70.8899 54.38 69.7499 54.03 68.9699 54.01C65.3599 53.89 63.0899 56.3 60.6299 59.01C61.0899 59.3 61.5499 59.59 62.0199 59.88C66.4299 56.45 68.5399 55.71 71.3299 55.01ZM56.4799 62.35C57.8499 61.41 59.6299 59.34 59.6399 59.34C56.4699 57.6 53.0899 58.22 50.9299 59.87C52.8699 60.51 54.6799 61.43 56.4899 62.35H56.4799ZM59.7499 63.97C60.7999 63.35 61.8399 62.74 62.8799 62.13C62.7399 61.85 62.0599 61.06 61.8099 60.87C58.6799 63.15 58.2099 63.13 58.2199 63.25C58.7299 63.49 59.2299 63.73 59.7499 63.97ZM64.2199 65.55C64.0899 64.47 63.7299 63.49 63.1799 62.56C62.2199 63.1 61.2599 63.64 60.2799 64.19C61.5699 64.74 62.8599 65.21 64.2199 65.55ZM57.6799 62.97C58.9599 62.21 60.1599 61.35 61.3199 60.43C60.9199 60.1 60.5099 59.82 60.0499 59.57C59.8699 59.79 58.6799 61 58.4899 61.19C57.5199 62.16 56.9999 62.44 56.8699 62.56C57.1399 62.7 57.4099 62.84 57.6799 62.98V62.97Z" fill="#66282C"/>
</g>
<defs>
<clipPath id="clip0_78_950">
<rect width="122.68" height="72.29" fill="white"/>
</clipPath>
</defs>
</svg>
